<svg width="25" height="25" viewBox="0 0 25 25" fill="none" xmlns="http://www.w3.org/2000/svg">
<path opacity="0.5" d="M12.5 25C5.607 25 0 19.393 0 12.5C0 5.607 5.607 0 12.5 0C19.393 0 25 5.607 25 12.5C25 19.393 19.392 25 12.5 25ZM12.5 2C6.71 2 2 6.71 2 12.5C2 18.29 6.71 23 12.5 23C18.29 23 23 18.29 23 12.5C23 6.71 18.289 2 12.5 2ZM12.42 13.42H6C5.73478 13.42 5.48043 13.3146 5.29289 13.1271C5.10536 12.9396 5 12.6852 5 12.42C5 12.1548 5.10536 11.9004 5.29289 11.7129C5.48043 11.5254 5.73478 11.42 6 11.42H11.42V4C11.42 3.73478 11.5254 3.48043 11.7129 3.29289C11.9004 3.10536 12.1548 3 12.42 3C12.6852 3 12.9396 3.10536 13.1271 3.29289C13.3146 3.48043 13.42 3.73478 13.42 4V12.42C13.42 12.6852 13.3146 12.9396 13.1271 13.1271C12.9396 13.3146 12.6852 13.42 12.42 13.42Z" fill="white"/>
</svg>
