<svg width="105" height="484" viewBox="0 0 105 484" fill="none" xmlns="http://www.w3.org/2000/svg">
<path opacity="0.1" d="M102 483.906H2.59999L2.59999 456.358L67.494 416.598V431.082L2.59999 392.458V364.91L102 364.626V395.156L48.608 395.44V390.612L93.054 417.024V431.792L48.608 459.34V453.376H102V483.906ZM102 359.216L2.59999 315.764L2.59999 282.82L102 239.368L102 274.016L18.504 306.108V293.044L102 325.136V359.216ZM84.676 333.372L60.536 324.852V279.128L84.676 270.608V333.372ZM102 217.427H28.586V246.537H2.59999L2.59999 154.805H28.586V183.915H102V217.427ZM102 146.101H2.59999L2.59999 112.589H102V146.101ZM104.272 45.0528C104.272 53.0048 103.041 60.3888 100.58 67.2048C98.024 73.9261 94.4267 79.7954 89.788 84.8128C85.1493 89.7354 79.6587 93.5694 73.316 96.3148C66.9733 99.0601 59.968 100.433 52.3 100.433C44.632 100.433 37.6267 99.0601 31.284 96.3148C24.9413 93.5694 19.4507 89.7354 14.812 84.8128C10.1733 79.7954 6.62333 73.9261 4.162 67.2048C1.606 60.3888 0.327997 53.0048 0.327997 45.0528C0.327997 35.3021 2.032 26.6874 5.44 19.2088C8.84799 11.6354 13.7707 5.38744 20.208 0.464776L39.094 21.6228C35.402 24.5574 32.562 27.8234 30.574 31.4208C28.4913 34.9234 27.45 38.8994 27.45 43.3488C27.45 46.8514 28.018 50.0228 29.154 52.8628C30.29 55.7028 31.9467 58.1641 34.124 60.2468C36.3013 62.2348 38.952 63.7968 42.076 64.9328C45.1053 66.0688 48.5133 66.6368 52.3 66.6368C56.0867 66.6368 59.542 66.0688 62.666 64.9328C65.6953 63.7968 68.2987 62.2348 70.476 60.2468C72.6533 58.1641 74.31 55.7028 75.446 52.8628C76.582 50.0228 77.15 46.8514 77.15 43.3488C77.15 38.8994 76.156 34.9234 74.168 31.4208C72.0853 27.8234 69.198 24.5574 65.506 21.6228L84.392 0.464776C90.7347 5.38744 95.6573 11.6354 99.16 19.2088C102.568 26.6874 104.272 35.3021 104.272 45.0528Z" fill="white"/>
</svg>
